<svg height="2686" width="720" xmlns="http://www.w3.org/2000/svg">
<rect height="2686" fill="#555" width="720"></rect>
<text fill="#7f7" font-family="Courier New" font-size="12" xml:space="preserve">
<tspan x="10" y="26">29 megabytes installed</tspan>
<tspan x="10" y="42"></tspan>
<tspan x="10" y="58">node_modules</tspan>
<tspan x="10" y="74">└─┬ sails-inverse-model@2.0.5 </tspan>
<tspan x="10" y="90">  ├── ansi-styles@2.2.1 </tspan>
<tspan x="10" y="106">  ├─┬ async@2.3.0 </tspan>
<tspan x="10" y="122">  │ └── lodash@4.17.4 </tspan>
<tspan x="10" y="138">  ├─┬ gencode@1.0.4 </tspan>
<tspan x="10" y="154">  │ ├─┬ create-file@1.0.1 </tspan>
<tspan x="10" y="170">  │ │ ├── is-existing-file@1.0.0 </tspan>
<tspan x="10" y="186">  │ │ └── safe-write-file@1.1.2 </tspan>
<tspan x="10" y="202">  │ ├── isarray@1.0.0 </tspan>
<tspan x="10" y="218">  │ └─┬ snack-file@1.0.0 </tspan>
<tspan x="10" y="234">  │   ├─┬ glob@5.0.15 </tspan>
<tspan x="10" y="250">  │   │ ├─┬ inflight@1.0.6 </tspan>
<tspan x="10" y="266">  │   │ │ └── wrappy@1.0.2 </tspan>
<tspan x="10" y="282">  │   │ ├─┬ minimatch@3.0.3 </tspan>
<tspan x="10" y="298">  │   │ │ └─┬ brace-expansion@1.1.7 </tspan>
<tspan x="10" y="314">  │   │ │   ├── balanced-match@0.4.2 </tspan>
<tspan x="10" y="330">  │   │ │   └── concat-map@0.0.1 </tspan>
<tspan x="10" y="346">  │   │ ├── once@1.4.0 </tspan>
<tspan x="10" y="362">  │   │ └── path-is-absolute@1.0.1 </tspan>
<tspan x="10" y="378">  │   └─┬ rimraf@2.6.1 </tspan>
<tspan x="10" y="394">  │     └─┬ glob@7.1.1 </tspan>
<tspan x="10" y="410">  │       └── fs.realpath@1.0.0 </tspan>
<tspan x="10" y="426">  ├─┬ handlebars@4.0.6 </tspan>
<tspan x="10" y="442">  │ ├── async@1.5.2 </tspan>
<tspan x="10" y="458">  │ ├─┬ optimist@0.6.1 </tspan>
<tspan x="10" y="474">  │ │ ├── minimist@0.0.8 </tspan>
<tspan x="10" y="490">  │ │ └── wordwrap@0.0.3 </tspan>
<tspan x="10" y="506">  │ ├─┬ source-map@0.4.4 </tspan>
<tspan x="10" y="522">  │ │ └── amdefine@1.0.1 </tspan>
<tspan x="10" y="538">  │ └─┬ uglify-js@2.8.22 </tspan>
<tspan x="10" y="554">  │   ├── source-map@0.5.6 </tspan>
<tspan x="10" y="570">  │   ├── uglify-to-browserify@1.0.2 </tspan>
<tspan x="10" y="586">  │   └─┬ yargs@3.10.0 </tspan>
<tspan x="10" y="602">  │     ├── camelcase@1.2.1 </tspan>
<tspan x="10" y="618">  │     ├─┬ cliui@2.1.0 </tspan>
<tspan x="10" y="634">  │     │ ├─┬ center-align@0.1.3 </tspan>
<tspan x="10" y="650">  │     │ │ ├─┬ align-text@0.1.4 </tspan>
<tspan x="10" y="666">  │     │ │ │ ├─┬ kind-of@3.1.0 </tspan>
<tspan x="10" y="682">  │     │ │ │ │ └── is-buffer@1.1.5 </tspan>
<tspan x="10" y="698">  │     │ │ │ ├── longest@1.0.1 </tspan>
<tspan x="10" y="714">  │     │ │ │ └── repeat-string@1.6.1 </tspan>
<tspan x="10" y="730">  │     │ │ └── lazy-cache@1.0.4 </tspan>
<tspan x="10" y="746">  │     │ ├── right-align@0.1.3 </tspan>
<tspan x="10" y="762">  │     │ └── wordwrap@0.0.2 </tspan>
<tspan x="10" y="778">  │     └── window-size@0.1.0 </tspan>
<tspan x="10" y="794">  ├─┬ meow@3.7.0 </tspan>
<tspan x="10" y="810">  │ ├─┬ camelcase-keys@2.1.0 </tspan>
<tspan x="10" y="826">  │ │ └── camelcase@2.1.1 </tspan>
<tspan x="10" y="842">  │ ├── decamelize@1.2.0 </tspan>
<tspan x="10" y="858">  │ ├─┬ loud-rejection@1.6.0 </tspan>
<tspan x="10" y="874">  │ │ ├─┬ currently-unhandled@0.4.1 </tspan>
<tspan x="10" y="890">  │ │ │ └── array-find-index@1.0.2 </tspan>
<tspan x="10" y="906">  │ │ └── signal-exit@3.0.2 </tspan>
<tspan x="10" y="922">  │ ├── map-obj@1.0.1 </tspan>
<tspan x="10" y="938">  │ ├── minimist@1.2.0 </tspan>
<tspan x="10" y="954">  │ ├─┬ normalize-package-data@2.3.8 </tspan>
<tspan x="10" y="970">  │ │ ├── hosted-git-info@2.4.2 </tspan>
<tspan x="10" y="986">  │ │ ├─┬ is-builtin-module@1.0.0 </tspan>
<tspan x="10" y="1002">  │ │ │ └── builtin-modules@1.1.1 </tspan>
<tspan x="10" y="1018">  │ │ ├── semver@5.3.0 </tspan>
<tspan x="10" y="1034">  │ │ └─┬ validate-npm-package-license@3.0.1 </tspan>
<tspan x="10" y="1050">  │ │   ├─┬ spdx-correct@1.0.2 </tspan>
<tspan x="10" y="1066">  │ │   │ └── spdx-license-ids@1.2.2 </tspan>
<tspan x="10" y="1082">  │ │   └── spdx-expression-parse@1.0.4 </tspan>
<tspan x="10" y="1098">  │ ├── object-assign@4.1.1 </tspan>
<tspan x="10" y="1114">  │ ├─┬ read-pkg-up@1.0.1 </tspan>
<tspan x="10" y="1130">  │ │ ├─┬ find-up@1.1.2 </tspan>
<tspan x="10" y="1146">  │ │ │ ├── path-exists@2.1.0 </tspan>
<tspan x="10" y="1162">  │ │ │ └─┬ pinkie-promise@2.0.1 </tspan>
<tspan x="10" y="1178">  │ │ │   └── pinkie@2.0.4 </tspan>
<tspan x="10" y="1194">  │ │ └─┬ read-pkg@1.1.0 </tspan>
<tspan x="10" y="1210">  │ │   ├─┬ load-json-file@1.1.0 </tspan>
<tspan x="10" y="1226">  │ │   │ ├── graceful-fs@4.1.11 </tspan>
<tspan x="10" y="1242">  │ │   │ ├─┬ parse-json@2.2.0 </tspan>
<tspan x="10" y="1258">  │ │   │ │ └─┬ error-ex@1.3.1 </tspan>
<tspan x="10" y="1274">  │ │   │ │   └── is-arrayish@0.2.1 </tspan>
<tspan x="10" y="1290">  │ │   │ ├── pify@2.3.0 </tspan>
<tspan x="10" y="1306">  │ │   │ └─┬ strip-bom@2.0.0 </tspan>
<tspan x="10" y="1322">  │ │   │   └── is-utf8@0.2.1 </tspan>
<tspan x="10" y="1338">  │ │   └── path-type@1.1.0 </tspan>
<tspan x="10" y="1354">  │ ├─┬ redent@1.0.0 </tspan>
<tspan x="10" y="1370">  │ │ ├─┬ indent-string@2.1.0 </tspan>
<tspan x="10" y="1386">  │ │ │ └─┬ repeating@2.0.1 </tspan>
<tspan x="10" y="1402">  │ │ │   └─┬ is-finite@1.0.2 </tspan>
<tspan x="10" y="1418">  │ │ │     └── number-is-nan@1.0.1 </tspan>
<tspan x="10" y="1434">  │ │ └─┬ strip-indent@1.0.1 </tspan>
<tspan x="10" y="1450">  │ │   └── get-stdin@4.0.1 </tspan>
<tspan x="10" y="1466">  │ └── trim-newlines@1.0.0 </tspan>
<tspan x="10" y="1482">  ├── mkdir-promise@1.0.0 </tspan>
<tspan x="10" y="1498">  ├─┬ mondongo@1.0.0 </tspan>
<tspan x="10" y="1514">  │ └─┬ mongodb@2.2.26 </tspan>
<tspan x="10" y="1530">  │   ├── es6-promise@3.2.1 </tspan>
<tspan x="10" y="1546">  │   ├─┬ mongodb-core@2.1.10 </tspan>
<tspan x="10" y="1562">  │   │ ├── bson@1.0.4 </tspan>
<tspan x="10" y="1578">  │   │ └─┬ require_optional@1.0.0 </tspan>
<tspan x="10" y="1594">  │   │   └── resolve-from@2.0.0 </tspan>
<tspan x="10" y="1610">  │   └─┬ readable-stream@2.2.7 </tspan>
<tspan x="10" y="1626">  │     ├── buffer-shims@1.0.0 </tspan>
<tspan x="10" y="1642">  │     ├── core-util-is@1.0.2 </tspan>
<tspan x="10" y="1658">  │     ├── process-nextick-args@1.0.7 </tspan>
<tspan x="10" y="1674">  │     └── string_decoder@1.0.0 </tspan>
<tspan x="10" y="1690">  ├─┬ mysqldesc@1.1.3 </tspan>
<tspan x="10" y="1706">  │ ├─┬ argx@1.3.1 </tspan>
<tspan x="10" y="1722">  │ │ └─┬ iftype@1.1.1 </tspan>
<tspan x="10" y="1738">  │ │   ├── arrayreduce@1.1.0 </tspan>
<tspan x="10" y="1754">  │ │   └── async@1.5.2 </tspan>
<tspan x="10" y="1770">  │ ├── async@1.5.2 </tspan>
<tspan x="10" y="1786">  │ ├── extend@3.0.0 </tspan>
<tspan x="10" y="1802">  │ └─┬ mysql@2.13.0 </tspan>
<tspan x="10" y="1818">  │   ├── bignumber.js@3.1.2 </tspan>
<tspan x="10" y="1834">  │   ├─┬ readable-stream@1.1.14 </tspan>
<tspan x="10" y="1850">  │   │ ├── isarray@0.0.1 </tspan>
<tspan x="10" y="1866">  │   │ └── string_decoder@0.10.31 </tspan>
<tspan x="10" y="1882">  │   └── sqlstring@2.2.0 </tspan>
<tspan x="10" y="1898">  ├── node-js-beautify@0.1.0 </tspan>
<tspan x="10" y="1914">  ├─┬ pg-json-schema-export@0.13.7 </tspan>
<tspan x="10" y="1930">  │ ├── bluebird@2.11.0 </tspan>
<tspan x="10" y="1946">  │ ├─┬ knex@0.7.6 </tspan>
<tspan x="10" y="1962">  │ │ ├─┬ chalk@0.5.1 </tspan>
<tspan x="10" y="1978">  │ │ │ ├── ansi-styles@1.1.0 </tspan>
<tspan x="10" y="1994">  │ │ │ ├── escape-string-regexp@1.0.5 </tspan>
<tspan x="10" y="2010">  │ │ │ ├─┬ has-ansi@0.1.0 </tspan>
<tspan x="10" y="2026">  │ │ │ │ └── ansi-regex@0.2.1 </tspan>
<tspan x="10" y="2042">  │ │ │ ├── strip-ansi@0.3.0 </tspan>
<tspan x="10" y="2058">  │ │ │ └── supports-color@0.2.0 </tspan>
<tspan x="10" y="2074">  │ │ ├─┬ commander@2.9.0 </tspan>
<tspan x="10" y="2090">  │ │ │ └── graceful-readlink@1.0.1 </tspan>
<tspan x="10" y="2106">  │ │ ├── generic-pool-redux@0.1.0 </tspan>
<tspan x="10" y="2122">  │ │ ├── inherits@2.0.3 </tspan>
<tspan x="10" y="2138">  │ │ ├── interpret@0.3.10 </tspan>
<tspan x="10" y="2154">  │ │ ├─┬ liftoff@0.13.6 </tspan>
<tspan x="10" y="2170">  │ │ │ ├── extend@1.3.0 </tspan>
<tspan x="10" y="2186">  │ │ │ ├─┬ findup-sync@0.1.3 </tspan>
<tspan x="10" y="2202">  │ │ │ │ ├─┬ glob@3.2.11 </tspan>
<tspan x="10" y="2218">  │ │ │ │ │ └─┬ minimatch@0.3.0 </tspan>
<tspan x="10" y="2234">  │ │ │ │ │   ├── lru-cache@2.7.3 </tspan>
<tspan x="10" y="2250">  │ │ │ │ │   └── sigmund@1.0.1 </tspan>
<tspan x="10" y="2266">  │ │ │ │ └── lodash@2.4.2 </tspan>
<tspan x="10" y="2282">  │ │ │ ├── flagged-respawn@0.3.2 </tspan>
<tspan x="10" y="2298">  │ │ │ ├── minimist@1.1.3 </tspan>
<tspan x="10" y="2314">  │ │ │ └── resolve@1.0.0 </tspan>
<tspan x="10" y="2330">  │ │ ├── lodash@2.4.2 </tspan>
<tspan x="10" y="2346">  │ │ ├── minimist@1.1.3 </tspan>
<tspan x="10" y="2362">  │ │ ├── mkdirp@0.5.1 </tspan>
<tspan x="10" y="2378">  │ │ ├─┬ readable-stream@1.1.14 </tspan>
<tspan x="10" y="2394">  │ │ │ ├── isarray@0.0.1 </tspan>
<tspan x="10" y="2410">  │ │ │ └── string_decoder@0.10.31 </tspan>
<tspan x="10" y="2426">  │ │ └─┬ tildify@1.0.0 </tspan>
<tspan x="10" y="2442">  │ │   └── user-home@1.1.1 </tspan>
<tspan x="10" y="2458">  │ ├── lodash@3.10.1 </tspan>
<tspan x="10" y="2474">  │ └─┬ pg.js@4.1.1 </tspan>
<tspan x="10" y="2490">  │   ├── buffer-writer@1.0.0 </tspan>
<tspan x="10" y="2506">  │   ├── generic-pool@2.1.1 </tspan>
<tspan x="10" y="2522">  │   ├── packet-reader@0.2.0 </tspan>
<tspan x="10" y="2538">  │   ├── pg-connection-string@0.1.3 </tspan>
<tspan x="10" y="2554">  │   ├── pg-types@1.6.0 </tspan>
<tspan x="10" y="2570">  │   └─┬ pgpass@0.0.3 </tspan>
<tspan x="10" y="2586">  │     └─┬ split@0.3.3 </tspan>
<tspan x="10" y="2602">  │       └── through@2.3.8 </tspan>
<tspan x="10" y="2618">  ├── progress@1.1.8 </tspan>
<tspan x="10" y="2634">  └─┬ underscore.string@3.3.4 </tspan>
<tspan x="10" y="2650">    ├── sprintf-js@1.0.3 </tspan>
<tspan x="10" y="2666">    └── util-deprecate@1.0.2</tspan>
</text>
</svg>
